PathFileType	4	(X/Y/Z)	Patient4_TMGait_0pt3_03_left_03.trc.trc
DataRate	CameraRate	NumFrames	NumMarkers	Units	OrigDataRate	OrigDataStartFrame	OrigNumFrames
54.687500000000	54.687500000000	6	33	mm	54.687500000000	53	       141
Frame#	Time	Sacral			L.Shoulder			Chest			R.Shoulder			Neck			R.ASIS			L.ASIS			R.Thigh.Superior			R.Thigh.Lateral			R.Thigh.Inferior			R.Patella			L.Thigh.Superior			L.Thigh.Lateral			L.Thigh.Inferior			L.Patella			L.Shank.Superior			L.Shank.Lateral			L.Shank.Inferior			R.Shank.Superior			R.Shank.Lateral			R.Shank.Inferior			R.Heel			R.Midfoot.Superior			R.Midfoot.Lateral			R.Toe			L.Heel			L.Midfoot.Lateral			L.Midfoot.Superior			L.Toe			L.Elbow			L.Wrist			R.Elbow			R.Wrist			
		X1	Y1	Z1	X2	Y2	Z2	X3	Y3	Z3	X4	Y4	Z4	X5	Y5	Z5	X6	Y6	Z6	X7	Y7	Z7	X8	Y8	Z8	X9	Y9	Z9	X10	Y10	Z10	X11	Y11	Z11	X12	Y12	Z12	X13	Y13	Z13	X14	Y14	Z14	X15	Y15	Z15	X16	Y16	Z16	X17	Y17	Z17	X18	Y18	Z18	X19	Y19	Z19	X20	Y20	Z20	X21	Y21	Z21	X22	Y22	Z22	X23	Y23	Z23	X24	Y24	Z24	X25	Y25	Z25	X26	Y26	Z26	X27	Y27	Z27	X28	Y28	Z28	X29	Y29	Z29	X30	Y30	Z30	X31	Y31	Z31	X32	Y32	Z32	X33	Y33	Z33	

53	5.520857142857	745.717052523810	995.163843548240	441.135351856837	899.196629754502	1428.496804570203	258.651514178662	1008.179877611528	1364.318469092699	417.489036138821	927.562106780228	1434.000858887448	593.441771254293	877.625036245125	1489.215641358247	420.136815112752	975.853492513216	935.980671072357	557.874219082545	963.135834977629	957.802158971033	284.132234113510	1018.614439662664	733.205956457358	542.284564370337	941.344752056661	625.471286465279	611.447229137267	1023.176972578203	564.843815719890	539.599773339237	1013.044338951182	455.704768961132	565.298529271222	1024.673237847402	749.573266122346	327.254711969246	948.612906918534	623.400047969035	269.295893613919	1035.906419529835	554.303601474329	338.813429481273	1040.033971838582	481.415858609498	350.119682061159	1004.533084255967	406.945188511601	345.094099608696	908.170638136344	299.690413037936	291.232128742360	940.174041644407	186.647989676219	368.257118054446	930.490991567769	392.494799016403	572.440426501762	806.339671082092	364.021861171807	632.612990970960	785.434881178818	254.378322100606	586.258298282638	578.942366997399	206.510831867804	558.141358375730	742.240600052709	136.380764642667	603.758959987858	632.795307125264	145.159003145747	633.838729280665	798.774334270185	31.649247646076	631.728290394910	797.048475967679	38.938446568820	404.092954507822	874.753976411426	36.045889754377	327.059620184919	957.807130045207	95.296269484195	358.994402161362	1086.846652538342	41.308013454078	335.656074644009	909.860841058267	1081.050234099247	125.998288562508	1026.952580587711	847.413602352288	142.352258769611	1013.822354019605	1093.367949904340	707.353013498232	1249.493528097536	987.143104498202	707.699272690776	
54	5.539142857143	744.133790646339	993.448154563319	437.112164798433	900.230670157225	1427.763550785460	256.608911242897	1007.075161839377	1363.204317134126	416.698522962639	924.016535419820	1431.798550178926	592.068698820690	876.534719830573	1488.046733628498	418.098804400230	973.979998711343	935.405975428929	555.503053763512	963.372284089570	956.671600485500	281.541749120939	1022.767241043194	735.115580565270	539.274728115314	949.292507670142	625.558022780762	608.720515220674	1032.841800382177	566.930182539031	536.560884814616	1024.943417798126	456.677759408694	562.786348204352	1024.690474987383	748.223574447591	325.034552913751	948.571737171958	621.934787313382	267.667114441453	1035.685553200461	552.896697185185	337.611867434182	1039.687991774275	479.856528189941	349.231945458737	1003.261948445669	405.305498415281	344.451287298220	905.862201610486	298.943460563546	290.665768065308	936.186799289418	185.824265243335	368.098792130769	941.206651764064	393.548725850965	569.863557025589	815.710474843506	367.966665188127	629.100168753756	793.000710885960	258.466498163390	583.483119240228	585.954383115004	215.608891369943	553.418885157741	747.261503496180	141.377448706990	601.705627666428	637.373137892684	153.438094570816	630.412278660489	800.552550569927	32.394063753949	631.859042918009	791.613775704077	39.013812934170	404.025473283080	869.322955960121	36.047782599379	327.013779414557	952.424641038070	95.188909410186	359.004394859194	1081.441099387766	41.037547873468	335.604509455572	921.983040306626	1081.742100067989	121.413775556036	1049.302969835200	853.493164686155	137.505210640221	995.374457739962	1086.319720129455	704.659854632618	1219.766997763859	958.205124891360	709.427834094819	
55	5.557428571429	742.502415309736	991.915030853986	433.364433953880	901.356545454690	1427.175191984265	254.875716649805	1005.996799738532	1362.217088795669	416.214891287912	920.410907362749	1429.698654370466	590.930672141400	875.481430815193	1486.998802415096	416.334671416432	972.023470827330	934.974014960678	553.499247972255	963.613017246587	955.651453973808	279.274131807917	1026.487946421523	737.350460236191	536.437992797792	956.760929083977	626.061696901766	606.090511899821	1041.850267387983	569.505257807046	533.538852231337	1036.333479787993	458.303733061104	560.132400728665	1024.558517965783	746.901979590442	323.058387957589	948.260075441560	620.537456861366	266.263823944961	1035.172999793862	551.505595258059	336.616343979980	1039.031311521624	478.341978017993	348.546246600886	1001.721229116022	403.743587421274	343.963390229443	903.352660362626	298.246830977228	290.214842180475	932.103319033132	185.049234742205	367.994390973628	951.780001213122	394.971859693098	567.243437416368	825.165258738686	371.444617947791	625.564449264390	801.326761893768	261.954212719409	580.619471136369	593.928138665419	222.147153032400	548.759986158647	753.975950046746	145.760987732254	599.517281385001	643.664772118675	159.852456130654	626.989123864334	805.219170742522	33.503864369706	631.784743826075	786.163742196024	39.081716267092	403.959273083350	863.884592968129	36.050315024278	326.968057249413	947.029603769680	95.089498303499	359.016823494131	1076.020455570223	40.799770188453	335.551187410749	933.988106067472	1083.056193123410	117.121520423627	1071.789617301233	860.927417808977	133.030218878065	976.577603941862	1080.122703474835	701.925613350163	1187.249599328246	930.813842041466	710.629113358015	
56	5.575714285714	740.882334257204	990.668276581306	429.885613607749	902.615142700066	1426.832688536638	253.455758331436	1004.968111097155	1361.455118647956	416.046278780648	916.760111936326	1427.825330200863	590.010021329518	874.493170883548	1486.163356460686	414.853795334456	969.988567823091	934.777166726077	551.874526150766	963.861074115591	954.819553567501	277.364871222335	1029.686435946501	739.930552758967	533.808126393276	963.611104204698	627.023445631967	603.590169960209	1050.025556232650	572.561538927316	530.566791754884	1047.028716618077	460.609709485957	557.394096465500	1024.212227425509	745.640948888571	321.361109700102	947.576790453655	619.277252000488	265.086112876593	1034.211538757160	550.169179552791	335.838646924260	1037.873990314912	476.925719325136	348.073637952758	999.758493871463	402.323628729135	343.624290808587	900.536491094564	297.623826658011	289.868840339116	927.866994608539	184.355480777611	367.940307353013	962.100871090200	396.753177181199	564.652034353764	834.661323066848	374.256989630834	622.154660123627	810.501720178771	264.607514912920	577.806637070820	602.966606502634	225.640707291966	544.458145113220	762.627387828016	149.190656689376	597.310171497929	651.904990709766	163.903682490061	623.774320658783	813.202036434587	34.833056359282	631.460738522884	780.692658042989	39.136761766883	403.895543214534	858.434714695673	36.051745713124	326.922029767913	941.616478554347	95.001755846697	359.028270745096	1070.581588217372	40.601435392702	335.498630342346	945.808698400705	1085.087326591681	113.100377272510	1094.242740871016	869.842038017520	128.942110391477	957.569520123651	1074.961138134578	699.210255691736	1152.277381977941	905.577203606517	711.276776325633	
57	5.594000000000	739.327277319346	989.798987565851	426.659682736965	904.043409031710	1426.821644506238	252.350521076203	1004.006033099815	1361.001976604224	416.198867742561	913.075331092569	1426.291256974715	589.287715425776	873.593238428772	1485.619082697467	413.660774610303	967.875968822455	934.892000118787	550.629983493416	964.105927999348	954.238634251873	275.850784063300	1032.296874556138	742.849993680048	531.415271449918	969.735425456480	628.456065997906	601.260239484389	1057.224404551830	576.057541500491	527.682201733409	1056.870188516048	463.590258581290	554.639760991313	1023.589300960752	744.469411331994	319.979267850354	946.436093135485	618.220523052620	264.125909270941	1032.658198414132	548.925763929657	335.281488299268	1036.042262879312	475.659913587373	347.813123080439	997.237208500086	401.105391498801	343.418453727554	897.319769037076	297.094608946362	289.609508141491	923.426555684551	183.771957964334	367.927991425747	972.079922866621	398.860012672791	562.163105298332	844.186593678444	376.223449522594	619.021527385015	820.616847292358	266.239916749264	575.183898144772	613.227337104098	225.776399476102	540.776608192068	773.414353392477	151.385908423889	595.201444617793	662.310785426139	165.241061840417	620.957738591952	824.787915894907	36.194850175745	630.873003143158	775.196202247265	39.174203939466	403.834908129992	852.969773313605	36.049856147316	326.874950667598	936.180591407187	94.928845738322	359.034680036447	1065.122458863953	40.446812380912	335.449552375800	957.387636782777	1087.905121108817	109.326597608240	1116.491189413816	880.324337873498	125.257391787925	938.471359447793	1070.995205380651	696.576744112799	1115.301848335487	883.061409801341	711.372307047103	
58	5.612285714286	737.878906449302	989.377983693180	423.662465804611	905.670337083524	1427.202210655595	251.559344710578	1003.120787097255	1360.918362656146	416.675809727529	909.366311756667	1425.188572536000	588.744784000531	872.798282689834	1485.424514996796	412.752742654163	965.684599377303	935.369108383858	549.757163795986	964.332556281083	953.954928498038	274.763906019713	1034.276930148566	746.072477173198	529.287758395024	975.049592031030	630.340619133874	599.148904496888	1063.335081251762	579.916305913156	524.932637051352	1065.721078692674	467.205032626222	551.949345281822	1022.636915353822	743.409898729454	318.944412350237	944.772324833557	617.424975559810	263.365841086669	1030.394778148999	547.809277758814	334.935982222644	1033.391953163157	474.590483653889	347.748640861102	994.047806094088	400.139286445559	343.320213815232	893.627126851155	296.674369945412	289.411676060641	918.739710517360	183.321691020340	367.944137862838	981.638552341476	401.243105219789	559.851565726983	853.745540141824	377.203554344583	616.302450757948	831.747382047503	266.736701115865	572.877212966994	624.906168476088	222.433360957310	537.915923856801	786.466496861585	152.164562326378	593.296717158363	675.061587004422	163.697626096204	618.692052135161	840.095289267234	37.418686982807	630.045212483076	769.672115395948	39.190792002210	403.777110470748	847.487114941469	36.042319520402	326.825798252394	930.718473494699	94.872994705076	359.031612075242	1059.642127915293	40.337513154321	335.406451560780	968.680329565725	1091.544609158910	105.779188693124	1138.367142937501	892.410768724823	121.991245519270	919.379306167998	1068.351110677219	694.080198433791	1076.872194602852	863.749095665564	710.945305354220	
